<svg width="75" height="75" viewBox="0 0 75 75" fill="none" xmlns="http://www.w3.org/2000/svg">
<path d="M66.0185 0.526555C66.5839 0.890176 66.9596 1.52494 67.2418 2.11283C67.4934 2.64454 67.7235 3.18262 67.9519 3.73056C68.3154 4.60691 68.603 5.51051 68.8924 6.40426C69.4635 8.11935 70.0015 9.84892 70.6682 11.5402C71.4027 13.3653 72.139 15.1806 72.8306 17.0185C73.3987 18.5198 73.8876 20.0681 74.2101 21.6379C74.7421 24.2091 74.6068 26.937 74.0062 29.4814C73.3889 32.0635 72.2531 34.5339 70.7876 36.7432C70.1107 37.7612 69.3359 38.701 68.4632 39.5626C67.6385 40.382 66.6528 41.0207 65.6479 41.595C63.4481 42.8423 60.9395 43.5376 58.4225 43.7035C57.1394 43.7821 55.8546 43.6979 54.5836 43.5349C53.2025 43.3627 51.8503 42.9113 50.578 42.3521C48.9095 41.6215 47.4267 40.5277 45.9603 39.457C44.7371 38.5612 43.5991 37.5281 42.5787 36.404C41.5501 35.2684 40.6872 33.9994 39.8109 32.7484C39.2609 31.9509 38.7109 31.1534 38.1609 30.3559C37.4162 29.2804 36.6449 28.2408 35.8539 27.1978C34.8798 26.0412 33.8692 24.9189 32.8238 23.8209C32.4767 23.4856 32.1279 23.1601 31.7692 22.8329C31.3862 22.471 30.9649 22.1531 30.5669 21.819C29.6688 21.1531 28.777 20.5086 27.8106 19.9423C27.0597 19.5359 26.2921 19.1671 25.5059 18.8458C24.3739 18.4129 23.2291 18.1097 22.0612 17.8227C21.4442 17.6937 20.8238 17.5844 20.1964 17.5145C19.518 17.4458 18.8524 17.4199 18.17 17.4317C17.5548 17.4655 16.9558 17.5224 16.3517 17.6089C15.7342 17.7134 15.1295 17.8607 14.5311 18.0294C13.865 18.237 13.2134 18.4777 12.5664 18.7495C11.9142 19.051 11.2881 19.3773 10.6667 19.7349C10.0168 20.1382 9.38147 20.5746 8.78031 21.0475C8.2336 21.4995 7.70139 21.9845 7.19698 22.4846C6.77539 22.918 6.38973 23.3781 6.01218 23.8498C5.63754 24.3626 5.30231 24.8823 4.99314 25.4269C4.74708 25.9014 4.51896 26.3892 4.32041 26.8822C4.14677 27.3492 4.0044 27.8115 3.87999 28.2872C3.78049 28.7367 3.7007 29.1897 3.65044 29.648C3.58691 30.2968 3.57438 30.9444 3.57979 31.6054C3.60669 32.4326 3.68457 33.2586 3.79373 34.08C3.79373 34.08 3.79373 34.08 3.79199 34.0899C3.93069 34.9165 4.07919 35.7448 4.25901 36.5685C4.45507 37.4153 4.68591 38.2379 4.9364 39.0638C5.15613 39.661 5.35789 40.2449 5.56777 40.8403C5.77301 41.4045 6.03441 41.9379 6.27266 42.4876C7.26791 44.5617 8.34078 46.5987 9.31634 48.6694C9.81948 49.7328 10.263 50.8466 10.7215 51.9326C11.1383 52.9098 11.5551 53.8869 11.9818 54.8658C12.4606 55.8944 12.9411 56.9133 13.4778 57.9014C13.7154 58.3392 13.9548 58.7672 14.204 59.197C14.8904 58.7594 15.5831 58.3433 16.274 57.937C17.8228 57.0421 19.3784 56.1078 21.1538 55.7707C22.1305 55.5874 23.106 55.6983 24.0214 56.0931C24.8516 56.4526 25.4329 57.2455 25.7227 58.0784C26.1118 59.2131 26.0786 60.4968 26.0315 61.6867C25.9964 62.635 25.8379 63.592 25.6731 64.5276C25.3701 66.3628 25.0492 68.1848 24.6674 70.0062C24.528 70.6823 24.3968 71.3699 24.2098 72.0274C23.9547 72.9573 23.6219 74.0968 22.6123 74.4673C22.1669 74.6325 21.7371 74.7091 21.2765 74.5569C21.0077 74.4689 20.769 74.3253 20.5488 74.1342C20.3118 74.1534 20.0819 74.1332 19.8409 74.0603C18.7622 73.7281 17.7118 73.3502 16.6649 72.9525C16.0572 72.7134 15.428 72.4808 14.8388 72.1942C14.0532 71.8121 13.2727 71.4005 12.4686 71.0659C12.0787 70.916 11.6836 70.7956 11.2867 70.6851C10.2416 70.4502 9.17109 70.3022 8.10227 70.1444C7.69675 70.0831 7.29119 70.0218 6.88394 69.9704C6.06132 69.8559 5.25492 69.7647 4.4919 69.4272C3.65183 69.0659 3.17076 68.108 3.32864 67.2118C3.46223 66.4534 4.06508 65.9707 4.66741 65.5488C5.41048 65.0197 6.1698 64.5137 6.9372 64.0194C7.66986 63.5494 8.41873 63.1025 9.145 62.6111C9.84811 62.1358 10.5431 61.649 11.2364 61.1721C10.8075 60.4365 10.3983 59.7044 10.014 58.9463C9.10342 57.1409 8.29182 55.2921 7.50516 53.4172C7.053 52.3526 6.60088 51.288 6.13887 50.2217C4.50193 46.7754 2.54819 43.4561 1.46092 39.7716C1.31595 39.2688 1.16285 38.7545 1.01788 38.2517C0.858415 37.7159 0.773072 37.1627 0.644888 36.6223C0.554975 36.2104 0.496348 35.794 0.426132 35.3856C0.295548 34.5706 0.173088 33.7671 0.105064 32.9428C-0.103651 30.4386 0.113985 27.8776 1.04651 25.5237C1.96224 23.2074 3.4191 21.22 5.19756 19.4822C6.91463 17.8047 8.97707 16.4723 11.1694 15.4978C13.5267 14.4509 16.0157 13.9248 18.5924 13.8811C20.4866 13.8493 22.326 14.2444 24.1451 14.6969C26.1872 15.2089 28.1049 16.024 29.93 17.0766C31.0731 17.7349 32.1705 18.5374 33.1885 19.3869C33.9488 20.0285 34.7189 20.6719 35.4142 21.3935C36.8049 22.8366 38.1197 24.307 39.3332 25.8916C41.1314 28.2493 42.6714 30.8052 44.4829 33.145C44.9575 33.7363 45.4669 34.3033 46.011 34.8459C46.6565 35.447 47.3403 36.0041 48.024 36.5611C49.0217 37.2954 50.023 38.0099 51.0925 38.6248C51.6029 38.8975 52.1168 39.1505 52.6574 39.3675C53.0867 39.5244 53.5096 39.6598 53.9441 39.7871C54.451 39.9069 54.9631 39.9971 55.4885 40.0694C56.2769 40.1473 57.0625 40.1842 57.8468 40.17C58.4504 40.1444 59.0395 40.0857 59.6338 39.9974C60.1905 39.8924 60.7425 39.7561 61.2864 39.6082C61.8141 39.4372 62.3354 39.2447 62.8521 39.021C63.382 38.7792 63.8842 38.5225 64.3916 38.2361C64.7223 38.0304 65.0333 37.8212 65.3478 37.5923C65.6559 37.3419 65.9559 37.08 66.2379 36.8048C66.623 36.4055 66.982 35.9814 67.3231 35.5439C67.8593 34.8057 68.3497 34.0392 68.7944 33.2443C68.7527 33.308 68.7209 33.3735 68.6774 33.4471C69.129 32.6128 69.5331 31.7599 69.8798 30.8868C70.1478 30.1725 70.3747 29.4611 70.5656 28.723C70.7317 28.011 70.8566 27.3019 70.9322 26.5842C70.9876 25.9238 71.0199 25.2796 71.0145 24.6187C70.9871 24.0249 70.9383 23.4375 70.8581 22.8548C70.7334 22.122 70.564 21.4119 70.3651 20.6965C70.3796 20.7295 70.3842 20.7608 70.3889 20.7921C70.3761 20.7492 70.3616 20.7162 70.3587 20.6751C70.3506 20.6635 70.3523 20.6537 70.3442 20.6421C70.3361 20.6305 70.3378 20.6206 70.3378 20.6206C69.8798 19.1285 69.318 17.6486 68.7429 16.1867C68.216 14.8551 67.6362 13.5345 67.1324 12.1866C66.1637 9.55869 65.4225 6.84904 64.3466 4.25301C64.2046 3.96399 64.0742 3.66686 63.9108 3.38422C63.8945 3.36105 63.8881 3.33962 63.8701 3.32631C63.2588 2.76169 63.1149 1.79199 63.5787 1.06137C63.9805 0.451842 64.7017 0.16258 65.391 0.284023C65.5996 0.310607 65.8191 0.389903 66.0185 0.526555ZM21.7519 66.3246C21.9977 64.9869 22.232 63.6574 22.4187 62.3093C22.4677 61.6275 22.5132 60.9654 22.4997 60.2928C22.4886 60.0675 22.4695 59.8306 22.437 59.6116C22.4184 59.4865 22.3899 59.3596 22.3598 59.2426C22.3204 59.2357 22.2909 59.2305 22.2515 59.2235C22.1906 59.223 22.1298 59.2224 22.0591 59.2201C21.967 59.2242 21.8732 59.2381 21.7793 59.2521C21.6525 59.2805 21.5256 59.3089 21.3988 59.3373C21.0872 59.4347 20.7918 59.5553 20.4865 59.6742C19.4695 60.1449 18.504 60.7262 17.5338 61.2762C17.0213 61.5921 16.5168 61.9195 16.0141 62.2371C16.2297 62.5696 16.4453 62.902 16.6724 63.2263C17.2809 64.0951 17.9027 64.9459 18.546 65.7903C19.428 66.9509 20.2869 68.1277 21.1788 69.2901C21.3916 68.3122 21.5767 67.3192 21.7519 66.3246ZM16.1359 68.4627C15.0719 67.0669 14.0177 65.6729 13.0794 64.1977C12.6062 64.5205 12.133 64.8433 11.6598 65.1661C10.8623 65.7161 10.0405 66.2313 9.22849 66.7483C9.95089 66.8552 10.6832 66.9639 11.4119 67.0923C12.9089 67.356 14.2826 67.9737 15.636 68.6487C15.9616 68.8178 16.3005 68.9689 16.6296 69.1182C16.4673 68.8866 16.3016 68.6746 16.1359 68.4627Z" fill="black"/>
</svg>
