<svg width="81" height="70" viewBox="0 0 81 70" fill="none" xmlns="http://www.w3.org/2000/svg">
<path d="M9.43147 68.5248C7.50147 67.8748 5.69148 66.9048 4.00148 65.7748C3.15148 65.2048 2.33153 64.5948 1.55153 63.9148C1.13153 63.5448 0.711526 63.1648 0.361526 62.7148C-0.228474 61.9548 -0.0785281 60.8248 0.681472 60.2348C1.45147 59.6448 2.57151 59.7948 3.16151 60.5548C3.17151 60.5748 3.18149 60.5848 3.20149 60.5948C3.39149 60.7948 3.59153 60.9848 3.80153 61.1848C4.47153 61.7548 5.1815 62.2848 5.9015 62.7948C6.6615 63.2948 7.44148 63.7548 8.25148 64.1848C8.99148 64.5548 9.7415 64.8848 10.5215 65.1648C11.1615 65.3748 11.8115 65.5548 12.4715 65.7048C13.0615 65.8148 13.6415 65.8848 14.2315 65.9348C14.8315 65.9648 15.4315 65.9748 16.0415 65.9448C16.6915 65.8948 17.3315 65.8048 17.9615 65.6848C18.6715 65.5348 19.3615 65.3448 20.0515 65.1248C20.7015 64.8948 21.3315 64.6248 21.9515 64.3248C22.0915 64.2548 22.2315 64.1748 22.3715 64.0948C19.7615 62.2748 17.7315 59.5948 16.6015 56.5948C15.7215 54.2748 15.4015 51.7448 15.5815 49.2748C15.7615 46.8548 16.7115 44.5348 18.1915 42.6248C19.5115 40.9248 21.4515 39.5248 23.6815 39.5448C26.0615 39.5648 27.6315 41.6148 28.8315 43.4048C30.2315 45.5148 31.5715 47.7948 32.1115 50.2848C32.6715 52.8648 32.2915 55.5148 31.5015 58.0048C30.9315 59.8048 30.0815 61.4948 28.9615 62.9948C29.4615 63.0748 29.9615 63.1348 30.4715 63.1748C31.0115 63.2048 31.5515 63.2048 32.0915 63.1848C32.7215 63.1348 33.3315 63.0548 33.9515 62.9348C34.6215 62.7948 35.2715 62.6048 35.9115 62.3848C36.5015 62.1748 37.0715 61.9248 37.6315 61.6548C38.1615 61.3848 38.6715 61.0848 39.1715 60.7648C39.5115 60.5248 39.8415 60.2748 40.1615 60.0048C40.4715 59.7148 40.7615 59.4248 41.0415 59.1148C41.3315 58.7648 41.6115 58.4148 41.8815 58.0448C42.4315 57.2048 42.9015 56.3248 43.3615 55.4348C44.3715 53.3848 45.2515 51.2748 46.1915 49.1848C47.1015 47.1648 47.9815 45.1348 48.7215 43.0448C48.7015 43.1148 48.6715 43.1848 48.6515 43.2648C49.0115 42.2448 49.3215 41.2148 49.6015 40.1748C48.9115 40.0148 48.2315 39.7848 47.5915 39.5348C46.6015 39.1448 45.6715 38.6048 44.7915 38.0148C44.0715 37.5248 43.4515 36.9248 42.8415 36.3048C42.1415 35.5848 41.4615 34.8448 40.7915 34.0948C40.1915 33.4248 39.6515 32.7148 39.1815 31.9448C38.5615 30.9248 38.1615 29.7748 37.9315 28.6148C37.7015 27.4348 37.6515 26.2648 37.8015 25.0748C37.9615 23.8248 38.3915 22.6148 38.9115 21.4848C39.8015 19.5948 41.3215 17.6248 43.4315 17.0448C44.4215 16.7748 45.4015 16.7748 46.4015 16.9548C47.5615 17.1648 48.7415 17.5848 49.6915 18.3048C51.6815 19.8148 52.6415 22.2048 53.4015 24.5048C54.2515 27.0648 54.4215 29.7248 54.2915 32.4048C54.2415 33.6348 54.1315 34.8548 53.9815 36.0748C54.0815 35.9948 54.1815 35.9148 54.2815 35.8248C54.6515 35.4848 55.0015 35.1248 55.3415 34.7548C56.2015 33.7548 56.9615 32.6848 57.7215 31.6048C58.3615 30.6048 58.9915 29.6148 59.5915 28.5948C60.2015 27.5548 60.7715 26.4848 61.3415 25.4148C62.0615 23.9448 62.7515 22.4648 63.4315 20.9748C64.1515 19.3848 64.8115 17.7648 65.4915 16.1548C66.1315 14.6348 66.8315 13.1348 67.4715 11.6048C68.1315 10.0148 68.7615 8.42483 69.3515 6.80483C69.4215 6.60483 69.4915 6.40482 69.5515 6.20482C68.7315 6.31482 67.9215 6.40484 67.1015 6.50484C65.9715 6.63484 64.8415 6.77483 63.7115 6.90483C63.1715 6.96483 62.6415 7.02483 62.1115 7.08483C61.8315 7.11483 61.5515 7.14482 61.2715 7.17482C60.9315 7.21482 60.5715 7.30482 60.2215 7.29482C59.4315 7.25482 58.7315 6.78483 58.5115 5.99483C58.3015 5.24483 58.6315 4.37483 59.3215 3.99483C59.9015 3.68483 60.5215 3.44482 61.1315 3.17482C61.7215 2.92482 62.3115 2.66484 62.9115 2.44484C64.3415 1.92484 65.7715 1.46482 67.2315 1.04482C67.8915 0.854818 68.5515 0.68484 69.2115 0.50484C69.8815 0.32484 70.5515 0.174838 71.2415 0.0648378C71.9815 -0.0451622 72.8115 -0.045172 73.4915 0.304828C73.9315 0.534828 74.2915 0.884827 74.4715 1.33483C74.5115 1.34483 74.5615 1.35484 74.6015 1.37484C74.9815 1.49484 75.2815 1.69483 75.5315 1.99483C75.8315 2.37483 75.9915 2.78482 76.1515 3.23482C76.5415 4.37482 76.7615 5.60483 77.0315 6.77483C77.3715 8.21483 77.7015 9.65484 78.0215 11.0948C78.2215 12.0148 78.4615 12.9248 78.6315 13.8548C78.7915 14.7248 78.9415 15.5848 79.1015 16.4448C79.4015 18.1248 79.4615 19.8448 79.7115 21.5348C80.2115 22.2248 80.1515 23.2148 79.5315 23.8248C78.8515 24.5048 77.7115 24.5048 77.0315 23.8248C76.6315 23.4248 76.3615 22.9548 76.2615 22.3848C76.1615 21.8048 76.1115 21.2248 76.0515 20.6348C75.9715 19.9348 75.9015 19.2448 75.8015 18.5548C75.7215 17.9048 75.6415 17.2548 75.5315 16.6048C75.4015 15.8748 75.2715 15.1548 75.1415 14.4248C74.7815 12.8348 74.4415 11.2548 74.0715 9.67482C73.9115 8.96482 73.7415 8.24484 73.5715 7.53484C73.4615 7.07484 73.3615 6.61482 73.2615 6.14482C72.9215 7.19482 72.5815 8.24482 72.1915 9.26482C71.4815 11.1248 70.7215 12.9448 69.9215 14.7648C69.1715 16.4648 68.4515 18.1748 67.7215 19.8848C66.9815 21.6048 66.2515 23.3448 65.4315 25.0348C64.5515 26.8248 63.6515 28.6048 62.6415 30.3348C62.1215 31.2248 61.5815 32.0948 61.0215 32.9648C60.5015 33.7648 59.9515 34.5348 59.4015 35.3048C58.7415 36.2348 57.9715 37.1248 57.1615 37.9348C56.2815 38.8248 55.2515 39.5548 54.0715 40.0048C53.7915 40.1148 53.5115 40.1948 53.2215 40.2548C53.2115 40.2948 53.2015 40.3248 53.2015 40.3548C52.6515 42.6748 51.8615 44.9748 50.9115 47.1648C50.0815 49.0848 49.2415 50.9948 48.3915 52.9048C47.6815 54.5048 46.9815 56.1248 46.1615 57.6748C45.5815 58.7648 44.9615 59.8248 44.2015 60.7948C43.4115 61.8048 42.4815 62.6848 41.4415 63.4348C39.4115 64.8848 36.9915 65.8748 34.5515 66.3448C32.0115 66.8348 29.4315 66.7248 26.9315 66.0948C26.6415 66.0248 26.3615 65.9348 26.0715 65.8448C24.6615 66.9048 23.0515 67.7248 21.4015 68.3148C19.6015 68.9648 17.7115 69.3148 15.7915 69.4048C15.5615 69.4148 15.3415 69.4248 15.1115 69.4248C13.1715 69.5248 11.2515 69.1448 9.43147 68.5248ZM23.3015 43.1048C23.2015 43.1248 23.1015 43.1548 23.0015 43.1848C22.9115 43.2248 22.8215 43.2548 22.7315 43.2948C22.5515 43.3948 22.3715 43.5048 22.1915 43.6148C22.0915 43.6848 21.9915 43.7648 21.8915 43.8448C21.6715 44.0448 21.4615 44.2448 21.2715 44.4648C21.0115 44.7648 20.7715 45.0848 20.5415 45.4148C20.3615 45.6948 20.2015 45.9748 20.0415 46.2648C19.8715 46.6248 19.7215 46.9748 19.5815 47.3548C19.4615 47.7448 19.3515 48.1448 19.2615 48.5548C19.1815 49.0148 19.1215 49.4748 19.0815 49.9448C19.0615 50.4648 19.0615 50.9848 19.1015 51.5048C19.1515 52.1548 19.2415 52.7948 19.3715 53.4248C19.4915 53.9648 19.6415 54.5048 19.8115 55.0348C20.0015 55.5648 20.2215 56.0848 20.4715 56.5848C20.7115 57.0348 20.9715 57.4748 21.2415 57.9048C21.6115 58.4348 22.0015 58.9448 22.4215 59.4348C22.7215 59.7648 23.0315 60.0748 23.3615 60.3848C23.7415 60.7048 24.1315 61.0148 24.5315 61.2948C24.8115 61.4748 25.0915 61.6348 25.3715 61.7948C25.4515 61.7148 25.5215 61.6348 25.6015 61.5548C25.8815 61.2348 26.1415 60.9048 26.3915 60.5548C26.7115 60.0748 27.0015 59.5748 27.2615 59.0648C27.5515 58.4548 27.8215 57.8348 28.0515 57.2048C28.2615 56.5548 28.4415 55.9048 28.5915 55.2348C28.7015 54.6448 28.7915 54.0548 28.8415 53.4548C28.8615 53.0448 28.8615 52.6348 28.8415 52.2248C28.8015 51.8448 28.7515 51.4648 28.6815 51.0848C28.6115 50.7548 28.5215 50.4348 28.4215 50.1148C28.1915 49.4748 27.9115 48.8548 27.6115 48.2448C27.0815 47.2448 26.4915 46.2648 25.8715 45.3248C25.5515 44.8548 25.2215 44.3948 24.8615 43.9548C24.6915 43.7648 24.5215 43.5948 24.3415 43.4148C24.2815 43.3648 24.2215 43.3248 24.1615 43.2848C24.0815 43.2348 24.0115 43.1848 23.9315 43.1448C23.9115 43.1348 23.8915 43.1248 23.8715 43.1248C23.8315 43.1148 23.7915 43.1048 23.7515 43.0948C23.7115 43.0848 23.6815 43.0848 23.6415 43.0748C23.5815 43.0748 23.5215 43.0748 23.4615 43.0748C23.4115 43.0948 23.3515 43.0948 23.3015 43.1048ZM44.7915 20.3948C44.7215 20.4048 44.6515 20.4148 44.5815 20.4248C44.5115 20.4448 44.4415 20.4648 44.3715 20.4848C44.2815 20.5148 44.1915 20.5548 44.1015 20.5948C44.0315 20.6348 43.9615 20.6748 43.8915 20.7148C43.7615 20.8048 43.6315 20.9148 43.5015 21.0148C43.3615 21.1548 43.2215 21.2948 43.0915 21.4448C42.9615 21.6048 42.8415 21.7648 42.7215 21.9248C42.5515 22.1948 42.3915 22.4648 42.2415 22.7348C42.0315 23.1648 41.8415 23.6048 41.6715 24.0548C41.5615 24.3948 41.4615 24.7348 41.3815 25.0848C41.3215 25.4148 41.2715 25.7348 41.2415 26.0648C41.2315 26.3848 41.2315 26.6948 41.2515 27.0148C41.2915 27.3348 41.3315 27.6548 41.3915 27.9748C41.4715 28.3148 41.5615 28.6448 41.6615 28.9748C41.7615 29.2448 41.8715 29.5048 41.9915 29.7648C42.1415 30.0348 42.2915 30.3048 42.4615 30.5648C42.7015 30.9048 42.9615 31.2448 43.2315 31.5648C44.1815 32.6348 45.1415 33.7148 46.2115 34.6748C46.4815 34.8948 46.7615 35.1048 47.0515 35.3048C47.3915 35.5248 47.7415 35.7248 48.0915 35.9148C48.5015 36.1148 48.9215 36.2948 49.3415 36.4548C49.6615 36.5648 49.9815 36.6548 50.3015 36.7448C50.4815 35.5848 50.6115 34.4148 50.6915 33.2448C50.7715 31.9448 50.8115 30.6348 50.7415 29.3248C50.6915 28.6448 50.5915 27.9848 50.4615 27.3148C50.2915 26.5748 50.0915 25.8448 49.8515 25.1248C49.6215 24.4648 49.3615 23.8148 49.0615 23.1848C48.8715 22.8048 48.6615 22.4448 48.4315 22.0848C48.3515 21.9648 48.2515 21.8548 48.1615 21.7348C48.1915 21.7648 48.2215 21.8048 48.2515 21.8348C48.2215 21.7948 48.1915 21.7648 48.1615 21.7248C48.1515 21.7248 48.1415 21.7148 48.1415 21.7048C48.0315 21.5948 47.9315 21.4748 47.8115 21.3648C47.7315 21.3048 47.6615 21.2448 47.5815 21.1848C47.4215 21.0748 47.2515 20.9748 47.0815 20.8848C46.9615 20.8248 46.8415 20.7748 46.7115 20.7248C46.4115 20.6248 46.1215 20.5448 45.8215 20.4748C45.6215 20.4348 45.4315 20.4148 45.2215 20.3848C45.1615 20.3848 45.1015 20.3848 45.0415 20.3848C44.9615 20.3848 44.8715 20.3848 44.7915 20.3948Z" fill="black"/>
</svg>
