<svg width="86" height="68" viewBox="0 0 86 68" fill="none" xmlns="http://www.w3.org/2000/svg">
<path fill-rule="evenodd" clip-rule="evenodd" d="M28.2875 63.8651C28.2975 64.5124 28.3075 65.1596 28.32 65.8069C28.34 66.7769 29.16 67.6569 30.14 67.6569C31.12 67.6569 31.89 66.8469 31.91 65.8869C31.915 65.724 31.9193 65.5617 31.9236 65.3997C31.9368 64.9054 31.9499 64.414 31.98 63.9169C32.1911 61.6287 32.5163 59.3548 32.8411 57.0831C32.901 56.6643 32.9609 56.2456 33.02 55.8269C33.23 54.3769 33.4 52.9269 33.56 51.4769L33.5602 51.4754C33.7001 50.1859 33.8401 48.8964 34.08 47.6169C34.26 46.9369 34.45 46.2669 34.68 45.5969C34.65 45.6769 34.63 45.7469 34.6 45.8169C35.09 44.3869 35.6 42.9669 36.18 41.5669C36.76 40.1669 37.39 38.7969 38.05 37.4369C38.01 37.4969 37.98 37.5669 37.94 37.6369C38.36 36.8169 38.78 35.9969 39.28 35.2169C39.49 34.9069 39.71 34.6169 39.94 34.3369C40.07 34.1869 40.21 34.0569 40.35 33.9169C40.4497 33.8248 40.5612 33.7387 40.6709 33.6539C40.7042 33.6282 40.7374 33.6025 40.77 33.5769C40.91 33.4869 41.05 33.4069 41.2 33.3269C41.38 33.2369 41.56 33.1669 41.75 33.0969C42.03 33.0169 42.3 32.9369 42.58 32.8769C43.07 32.7969 43.56 32.7269 44.05 32.6869C44.53 32.6669 45 32.6669 45.48 32.6869C45.87 32.7269 46.25 32.7669 46.64 32.8369C46.96 32.9069 47.28 32.9969 47.6 33.0969L48.23 33.3669C48.4196 33.4667 48.5993 33.5765 48.779 33.6862L48.78 33.6869C48.99 33.8369 49.2 33.9969 49.4 34.1669C49.67 34.4269 49.94 34.6969 50.2 34.9869C50.5931 35.4474 50.9705 35.9206 51.3481 36.3939C51.6428 36.7634 51.9375 37.133 52.24 37.4969C52.4321 37.7274 52.6268 37.9553 52.8213 38.1829C53.3862 38.844 53.9491 39.5028 54.44 40.2169C54.59 40.4469 54.73 40.6869 54.87 40.9269C55.06 41.3369 55.23 41.7469 55.38 42.1669C55.7337 43.3164 55.9812 44.5044 56.2268 45.6836L56.24 45.7469C56.316 46.143 56.3952 46.539 56.4745 46.9351C56.5932 47.529 56.712 48.1229 56.82 48.7169C57.02 49.8269 57.2 50.9269 57.35 52.0469C57.4539 52.7737 57.5247 53.517 57.5951 54.2564C57.6197 54.514 57.6442 54.7711 57.67 55.0269C57.7046 55.3659 57.7404 55.7048 57.7761 56.0434C57.8437 56.6836 57.9111 57.3224 57.97 57.9569C58.05 59.1869 58.1 60.4069 58.06 61.6369C58.0467 62.0704 58.0244 62.504 58.0022 62.9376C57.9911 63.154 57.98 63.3704 57.97 63.5869C57.96 63.7069 57.94 63.8169 57.93 63.9269L57.9244 63.9757C57.8452 64.6665 57.7495 65.5012 58.15 66.1069C58.64 66.8569 59.53 67.2469 60.4 66.8769C61.09 66.5869 61.51 65.8969 61.49 65.1569C61.48 64.6769 61.5 64.1969 61.52 63.7169C61.5484 63.4797 61.5781 63.2433 61.6077 63.0071C61.693 62.3271 61.778 61.6497 61.83 60.9669C61.96 59.4569 62.03 57.9569 62.08 56.4369C62.1186 55.3439 62.1241 54.2492 62.1296 53.1542C62.1369 51.6943 62.1443 50.234 62.23 48.7769C62.37 47.0669 62.51 45.3469 62.66 43.6369C62.8 42.0469 63.07 40.4669 63.37 38.9069C63.94 36.4469 64.53 33.9969 65.23 31.5669C65.89 29.2869 66.62 27.0269 67.39 24.7869C68.28 22.4869 69.28 20.2469 70.37 18.0369C70.69 17.4369 71.04 16.8369 71.42 16.2569C72.1747 15.1893 73.0394 14.2065 73.9052 13.2225C73.9801 13.1373 74.0551 13.0521 74.13 12.9669C74.59 12.4569 75.05 11.9469 75.52 11.4469C75.9326 11.0245 76.3548 10.631 76.7867 10.2286L76.81 10.2069C77.3665 9.75962 77.9364 9.32862 78.5073 8.89698C79.0341 8.4986 79.5616 8.09965 80.08 7.68687C80.394 7.44019 80.7038 7.18839 81.0135 6.93671C81.3005 6.7035 81.5873 6.47038 81.8772 6.24155C81.6971 7.80311 81.4184 9.34501 81.12 10.8868C81.0349 11.2877 80.9485 11.6872 80.8622 12.0864C80.7052 12.8126 80.5484 13.5376 80.4 14.2668C80.26 14.9768 80.15 15.6968 80.19 16.4268C80.2181 16.9323 80.2549 17.4203 80.2923 17.9154L80.3 18.0168C80.29 17.9368 80.29 17.8568 80.28 17.7768C80.2832 17.832 80.2875 17.8872 80.2919 17.9427C80.3009 18.0582 80.31 18.1752 80.31 18.2968C80.2 19.2368 80.89 20.1268 81.83 20.2568L81.8472 20.2588C81.9291 20.268 81.9958 20.2756 82.08 20.2568C82.94 20.2568 83.71 19.5968 83.83 18.7268C83.9067 18.2049 83.8539 17.6535 83.8026 17.118C83.787 16.9557 83.7716 16.7949 83.76 16.6368L83.7587 16.6074C83.7492 16.388 83.74 16.177 83.74 15.9568C83.7847 15.4116 83.8933 14.8823 84.0016 14.3547C84.0144 14.2921 84.0273 14.2295 84.04 14.1668C84.0389 14.1709 84.0379 14.1752 84.037 14.1792C84.0926 13.9222 84.1488 13.6651 84.205 13.4078C84.5089 12.0165 84.8136 10.6215 85.04 9.20683C85.19 8.25681 85.33 7.30683 85.44 6.34684C85.4825 5.97974 85.5175 5.61118 85.5526 5.24226C85.6083 4.65644 85.6641 4.06974 85.75 3.48682C85.85 3.26682 85.91 3.01685 85.91 2.75684C85.91 1.78684 85.1 0.986824 84.14 0.986824C83.9096 0.986824 83.6817 1.03007 83.4691 1.11417C83.1858 0.998604 82.8849 0.920662 82.58 0.86686C81.9223 0.750405 81.2599 0.685555 80.5992 0.620919C80.2955 0.591195 79.9923 0.561501 79.69 0.526863C79.382 0.48954 79.0719 0.450051 78.7606 0.410378C78.4047 0.365059 78.0474 0.319527 77.69 0.276863C76.2 0.106881 74.7 -0.0531536 73.2 0.0168537C72.4 0.0468525 71.6 0.166878 70.84 0.446877C70.6464 0.520638 70.4549 0.598671 70.2625 0.67701C70.0377 0.768593 69.8118 0.860634 69.58 0.946877C69.4901 0.976845 69.3902 1.00681 69.3003 1.0268C69.3135 1.02335 69.3267 1.02003 69.34 1.01685C69.32 1.01685 69.3103 1.01682 69.3003 1.0268C68.4416 1.25178 67.842 2.06104 67.97 2.97688C68.09 3.90687 69.01 4.64686 69.96 4.48686C70.5354 4.38712 71.0813 4.16383 71.6204 3.94334C71.784 3.87641 71.947 3.80973 72.11 3.74686C72.24 3.70686 72.37 3.66688 72.5 3.63688C72.72 3.59687 72.95 3.56687 73.17 3.54685C73.85 3.51685 74.53 3.53687 75.21 3.56687C76.3 3.65687 77.37 3.78687 78.45 3.92686L78.99 3.98686C78.92 4.04685 78.84 4.10688 78.77 4.16688C78.6652 4.25196 78.5599 4.33781 78.4543 4.42399C78.0259 4.77335 77.5912 5.12797 77.15 5.45686C76.9456 5.61103 76.7387 5.76264 76.5315 5.91447C76.1608 6.18604 75.7892 6.45823 75.43 6.74686C74.76 7.27686 74.13 7.82688 73.51 8.40687C73.0526 8.82026 72.6339 9.29557 72.2267 9.75791C72.1709 9.82121 72.1154 9.88425 72.06 9.94688C71.05 11.0669 70.05 12.1969 69.11 13.3769C68.08 14.6669 67.34 16.1369 66.61 17.6069C66.2 18.4369 65.82 19.2869 65.44 20.1369C64.67 21.8969 63.96 23.6769 63.39 25.5069C63.2234 26.04 63.0545 26.5722 62.8857 27.1044C62.4464 28.489 62.0073 29.8727 61.61 31.2669C61.1 33.0469 60.65 34.8569 60.24 36.6569C60 37.6969 59.79 38.7369 59.58 39.7869C59.41 40.6869 59.31 41.5969 59.21 42.5069C59.2 42.5469 59.19 42.5969 59.19 42.6469C59.175 42.5919 59.1625 42.537 59.1501 42.4821C59.1375 42.427 59.125 42.372 59.11 42.3169C58.87 41.2969 58.51 40.2969 58.05 39.3569C57.58 38.4169 56.97 37.5669 56.29 36.7669C55.68 36.0469 55.06 35.3369 54.47 34.5969C54.369 34.4701 54.2683 34.343 54.1676 34.2159C53.1719 32.9593 52.1759 31.7022 50.85 30.7669C48.79 29.3169 46.14 28.9269 43.67 29.1269C41.43 29.3069 39.13 29.9269 37.56 31.6469C36.39 32.9269 35.53 34.4469 34.77 36.0069C34.6851 36.1857 34.5996 36.3646 34.5141 36.5436C34.2171 37.1651 33.9195 37.788 33.64 38.4169C32.88 40.1469 32.19 41.8969 31.57 43.6769C31.23 44.6369 30.91 45.5969 30.66 46.5869C30.44 47.4769 30.32 48.3969 30.21 49.3069C29.93 48.4869 29.59 47.6969 29.2 46.9269C28.88 46.3169 28.54 45.7269 28.2 45.1369C27.74 44.3369 27.27 43.5469 26.79 42.7569C25.77 41.0669 24.68 39.3869 23.13 38.1369C22.2 37.3869 21.16 36.7469 20.02 36.3769C18.88 36.0069 17.66 35.8869 16.47 36.0269C15.17 36.1869 13.88 36.5069 12.65 36.9569C11.49 37.3868 10.35 37.9069 9.31003 38.5869C8.27002 39.2669 7.31 40.0469 6.49002 40.9869C5.70999 41.8769 5.04001 42.8769 4.49002 43.9169C3.95999 44.8969 3.44998 45.9069 3.04001 46.9469C2.82999 47.4769 2.62003 48.0169 2.41003 48.5469C2.25381 48.9328 2.12292 49.3356 1.99411 49.732L1.96002 49.8369C1.92004 49.9539 1.87845 50.071 1.83685 50.1881C1.73273 50.481 1.6286 50.7739 1.55002 51.0669L1.48367 51.3116C1.24612 52.1871 1.01215 53.0494 0.820038 53.9369C0.784302 54.1058 0.745392 54.2748 0.70639 54.4441C0.625366 54.7959 0.544006 55.1491 0.490021 55.5069C0.410004 56.0469 0.330017 56.5769 0.240021 57.1169C0.100006 58.0069 0.0299988 58.9169 0.0100098 59.8169C0 60.3669 -0.0100098 60.9169 0.0200195 61.4669L0.0203857 61.4746C0.0502625 62.0522 0.080658 62.6394 0.230011 63.1969C0.399994 64.0869 1.29999 64.7069 2.20001 64.5869C3.17999 64.4469 3.83002 63.5469 3.72003 62.5869C3.71109 62.4976 3.69421 62.4243 3.66934 62.3455C3.66956 62.346 3.6698 62.3464 3.67001 62.3469C3.67001 62.3418 3.66742 62.3367 3.66489 62.3316C3.6633 62.3267 3.66168 62.3218 3.66003 62.3169C3.66003 62.3218 3.66245 62.3267 3.66489 62.3316C3.66641 62.3363 3.66788 62.3409 3.66934 62.3455C3.64978 62.3062 3.63989 62.2764 3.63004 62.2369C3.61002 62.0769 3.60001 61.9269 3.58002 61.7769C3.54999 61.0169 3.55002 60.2569 3.56003 59.4969L3.56204 59.462C3.59137 58.9428 3.62177 58.4055 3.70001 57.8969C3.78998 57.2672 3.88989 56.6375 3.98984 56.0078C4.03864 55.7903 4.08664 55.5719 4.13446 55.3545C4.30219 54.592 4.46991 53.8294 4.68002 53.0669C4.95001 52.0769 5.27002 51.0969 5.59003 50.1169L5.6579 49.9437C6.1246 48.7524 6.58725 47.5714 7.15002 46.4269C7.49411 45.7578 7.85645 45.0979 8.272 44.4558C8.29214 44.4276 8.3121 44.3982 8.33002 44.3669C8.31058 44.3965 8.29123 44.4262 8.272 44.4558C8.24719 44.4906 8.22208 44.5238 8.20001 44.5569C8.51001 44.0969 8.83002 43.6569 9.19003 43.2369C9.43002 42.9769 9.67999 42.7269 9.95001 42.4769C10.27 42.2069 10.6 41.9469 10.94 41.7069C11.41 41.4069 11.88 41.1269 12.38 40.8769C12.95 40.5969 13.54 40.3569 14.14 40.1469C14.69 39.9669 15.26 39.8069 15.83 39.6769C16.26 39.5969 16.68 39.5269 17.11 39.4869C17.2686 39.4869 17.4232 39.4869 17.5789 39.4894C17.6686 39.4909 17.7587 39.4932 17.85 39.4969C18.01 39.5069 18.17 39.5269 18.33 39.5569C18.54 39.6069 18.74 39.6569 18.94 39.7169C19.17 39.8069 19.39 39.8969 19.62 40.0069C19.83 40.1269 20.05 40.2569 20.26 40.3869C20.56 40.5969 20.84 40.8169 21.12 41.0569C21.1776 41.1145 21.2353 41.1715 21.2928 41.2284C21.4647 41.3984 21.6352 41.567 21.8 41.7469C22.13 42.1369 22.45 42.5369 22.74 42.9569C23.3166 43.8265 23.8396 44.714 24.3681 45.6108L24.46 45.7669C24.5541 45.9266 24.6485 46.086 24.7428 46.2454C25.1801 46.984 25.617 47.7219 26.02 48.4869C26.33 49.1269 26.6 49.7669 26.84 50.4369C27.09 51.1769 27.28 51.9369 27.45 52.6969C27.6 53.5569 27.75 54.4069 27.86 55.2769C27.97 56.1969 28.05 57.1169 28.13 58.0369C28.2275 59.9796 28.2575 61.9224 28.2875 63.8651ZM84.018 14.2669C84.0087 14.3102 83.9993 14.3535 83.99 14.3968C84 14.3568 84.0075 14.3192 84.015 14.2816C84.016 14.2767 84.017 14.2718 84.018 14.2669Z" fill="black"/>
</svg>
