<svg width="153" height="55" viewBox="0 0 153 55" fill="none" xmlns="http://www.w3.org/2000/svg">
<path d="M131.833 12.8307C126.38 12.8307 123.603 10.2889 121.152 8.04622C118.94 6.02094 117.192 4.4212 113.457 4.4212C109.723 4.4212 107.975 6.02094 105.762 8.04622C103.312 10.2889 100.535 12.8307 95.0817 12.8307C89.6289 12.8307 86.852 10.2889 84.4016 8.04622C82.1891 6.02094 80.4416 4.4212 76.7068 4.4212C72.9724 4.4212 71.2249 6.02094 69.0125 8.04622C66.5624 10.2889 63.7851 12.8307 58.3323 12.8307C52.8802 12.8307 50.1037 10.2889 47.6536 8.04622C45.4416 6.02094 43.6941 4.4212 39.96 4.4212C36.2256 4.4212 34.4781 6.02094 32.2656 8.04622C29.8156 10.2889 27.0383 12.8307 21.5859 12.8307C16.133 12.8307 13.3558 10.2889 10.9053 8.04622C8.69289 6.02094 6.94541 4.4212 3.2106 4.4212C1.98998 4.4212 1 3.43159 1 2.2106C1 0.989981 1.98998 0 3.2106 0C8.66305 0 11.4403 2.54182 13.8908 4.78448C16.1032 6.80975 17.851 8.40949 21.5859 8.40949C25.3203 8.40949 27.0678 6.80976 29.2802 4.78485C31.7303 2.54182 34.5076 0 39.96 0C45.4121 0 48.189 2.54219 50.6391 4.78485C52.8511 6.81013 54.5982 8.40949 58.3323 8.40949C62.0671 8.40949 63.8146 6.80976 66.0271 4.78485C68.4771 2.54182 71.2544 0 76.7068 0C82.1597 0 84.9365 2.54182 87.387 4.78485C89.5994 6.80976 91.3473 8.40949 95.0817 8.40949C98.8169 8.40949 100.564 6.80976 102.777 4.78485C105.227 2.54182 108.005 0 113.457 0C118.91 0 121.687 2.54182 124.138 4.78485C126.35 6.80976 128.098 8.40949 131.833 8.40949C135.568 8.40949 137.316 6.80975 139.529 4.78448C141.98 2.54182 144.757 0 150.21 0C151.431 0 152.421 0.989981 152.421 2.2106C152.421 3.43159 151.431 4.4212 150.21 4.4212C146.475 4.4212 144.727 6.02094 142.514 8.04622C140.063 10.2889 137.286 12.8307 131.833 12.8307Z" fill="black"/>
<path d="M131.123 34.151C125.67 34.151 122.893 31.6092 120.442 29.3665C118.23 27.3413 116.482 25.7415 112.747 25.7415C109.013 25.7415 107.265 27.3413 105.052 29.3662C102.602 31.6092 99.8246 34.151 94.3718 34.151C88.9189 34.151 86.1421 31.6092 83.6916 29.3662C81.4792 27.3413 79.7317 25.7415 75.9969 25.7415C72.2624 25.7415 70.5149 27.3413 68.3025 29.3662C65.8524 31.6092 63.0752 34.151 57.6224 34.151C52.1703 34.151 49.3938 31.6092 46.9437 29.3662C44.7316 27.3413 42.9841 25.7415 39.25 25.7415C35.5156 25.7415 33.7681 27.3413 31.5557 29.3662C29.1056 31.6092 26.3283 34.151 20.8759 34.151C15.4231 34.151 12.6458 31.6092 10.1954 29.3662C7.98293 27.3413 6.23508 25.7415 2.50064 25.7415C1.28002 25.7415 0.290039 24.7515 0.290039 23.5309C0.290039 22.3099 1.28002 21.3203 2.50064 21.3203C7.95309 21.3203 10.7303 23.8621 13.1808 26.1048C15.3932 28.1301 17.1411 29.7298 20.8759 29.7298C24.6103 29.7298 26.3578 28.1301 28.5703 26.1048C31.0203 23.8621 33.7976 21.3203 39.25 21.3203C44.7021 21.3203 47.479 23.8621 49.9291 26.1052C52.1412 28.1301 53.8883 29.7298 57.6224 29.7298C61.3572 29.7298 63.1046 28.1301 65.3171 26.1048C67.7672 23.8621 70.5444 21.3203 75.9969 21.3203C81.4497 21.3203 84.2266 23.8621 86.677 26.1048C88.8895 28.1301 90.6373 29.7298 94.3718 29.7298C98.1069 29.7298 99.8544 28.1301 102.067 26.1048C104.517 23.8621 107.295 21.3203 112.747 21.3203C118.2 21.3203 120.977 23.8621 123.428 26.1048C125.64 28.1301 127.388 29.7298 131.123 29.7298C134.858 29.7298 136.606 28.1301 138.819 26.1048C141.27 23.8621 144.047 21.3203 149.5 21.3203C150.721 21.3203 151.711 22.3099 151.711 23.5309C151.711 24.7515 150.721 25.7415 149.5 25.7415C145.765 25.7415 144.017 27.3413 141.804 29.3665C139.353 31.6092 136.576 34.151 131.123 34.151Z" fill="black"/>
<path d="M130.833 54.8307C125.38 54.8307 122.603 52.2889 120.152 50.0462C117.94 48.0209 116.192 46.4212 112.457 46.4212C108.723 46.4212 106.975 48.0209 104.762 50.0459C102.312 52.2889 99.5345 54.8307 94.0817 54.8307C88.6289 54.8307 85.852 52.2889 83.4016 50.0459C81.1891 48.0209 79.4416 46.4212 75.7068 46.4212C71.9724 46.4212 70.2249 48.0209 68.0125 50.0459C65.5624 52.2889 62.7851 54.8307 57.3323 54.8307C51.8802 54.8307 49.1037 52.2889 46.6536 50.0459C44.4416 48.0209 42.6941 46.4212 38.96 46.4212C35.2256 46.4212 33.4781 48.0209 31.2656 50.0459C28.8156 52.2889 26.0383 54.8307 20.5859 54.8307C15.133 54.8307 12.3558 52.2889 9.90534 50.0459C7.69289 48.0209 5.94504 46.4212 2.2106 46.4212C0.989981 46.4212 0 45.4312 0 44.2106C0 42.9896 0.989981 42 2.2106 42C7.66305 42 10.4403 44.5418 12.8908 46.7845C15.1032 48.8098 16.851 50.4095 20.5859 50.4095C24.3203 50.4095 26.0678 48.8098 28.2802 46.7845C30.7303 44.5418 33.5076 42 38.96 42C44.4121 42 47.189 44.5418 49.6391 46.7848C51.8511 48.8098 53.5982 50.4095 57.3323 50.4095C61.0671 50.4095 62.8146 48.8098 65.0271 46.7845C67.4771 44.5418 70.2544 42 75.7068 42C81.1597 42 83.9365 44.5418 86.387 46.7845C88.5994 48.8098 90.3473 50.4095 94.0817 50.4095C97.8169 50.4095 99.5644 48.8098 101.777 46.7845C104.227 44.5418 107.005 42 112.457 42C117.91 42 120.687 44.5418 123.138 46.7845C125.35 48.8098 127.098 50.4095 130.833 50.4095C134.568 50.4095 136.316 48.8098 138.529 46.7845C140.98 44.5418 143.757 42 149.21 42C150.431 42 151.421 42.9896 151.421 44.2106C151.421 45.4312 150.431 46.4212 149.21 46.4212C145.475 46.4212 143.727 48.0209 141.514 50.0462C139.063 52.2889 136.286 54.8307 130.833 54.8307Z" fill="black"/>
</svg>
