<svg width="43" height="232" viewBox="0 0 43 232" fill="none" xmlns="http://www.w3.org/2000/svg">
<path d="M35.432 231.969H42.4067V203.402H35.432V231.969Z" fill="#1D262D"/>
<path d="M17.7159 231.969H24.6907L24.6907 203.402H17.7159L17.7159 231.969Z" fill="#1D262D"/>
<path d="M-9.91821e-05 231.969H6.97461L6.97461 203.402H-9.91821e-05L-9.91821e-05 231.969Z" fill="#1D262D"/>
<path d="M35.432 191.291H42.4067V162.725H35.432V191.291Z" fill="#1D262D"/>
<path d="M17.7159 191.291H24.6907L24.6907 162.725H17.7159L17.7159 191.291Z" fill="#1D262D"/>
<path d="M17.7159 150.613H24.6907L24.6907 122.047H17.7159L17.7159 150.613Z" fill="#1D262D"/>
<path d="M-9.91821e-05 150.613H6.97461L6.97461 122.047H-9.91821e-05L-9.91821e-05 150.613Z" fill="#1D262D"/>
<path d="M35.432 109.922H42.4067V81.3557H35.432V109.922Z" fill="#1D262D"/>
<path d="M-9.91821e-05 109.922H6.97461L6.97461 81.3557H-9.91821e-05L-9.91821e-05 109.922Z" fill="#1D262D"/>
<path d="M35.432 69.2442H42.4067V40.678H35.432V69.2442Z" fill="#1D262D"/>
<path d="M17.7159 69.2442H24.6907L24.6907 40.678H17.7159L17.7159 69.2442Z" fill="#1D262D"/>
<path d="M35.432 28.5663H42.4067V5.72205e-06H35.432V28.5663Z" fill="#1D262D"/>
<path d="M17.7159 28.5663H24.6907L24.6907 5.72205e-06H17.7159L17.7159 28.5663Z" fill="#1D262D"/>
<path d="M-9.91821e-05 28.5663H6.97461L6.97461 5.72205e-06H-9.91821e-05L-9.91821e-05 28.5663Z" fill="#1D262D"/>
</svg>
