<svg width="141" height="131" viewBox="0 0 141 131" fill="none" xmlns="http://www.w3.org/2000/svg">
<path d="M106.041 28.2063C101.978 31.8428 98.2133 31.8012 94.8918 31.7645C91.8925 31.7311 89.5232 31.7049 86.7404 34.1958C83.9576 36.6868 83.7223 39.0445 83.4243 42.0294C83.0945 45.3345 82.7204 49.0807 78.6576 52.7175C74.5947 56.3542 70.8303 56.3124 67.5088 56.2757C64.5095 56.2423 62.1405 56.2158 59.3577 58.7068C56.5752 61.1975 56.3401 63.555 56.0424 66.5396C55.7126 69.8447 55.3385 73.5909 51.2757 77.2277C47.2133 80.864 43.4493 80.8219 40.128 80.785C37.129 80.7513 34.76 80.7248 31.9777 83.2153C29.1952 85.706 28.9601 88.0635 28.6624 91.0481C28.3326 94.3532 27.9586 98.0994 23.896 101.736C19.8331 105.373 16.0685 105.331 12.7469 105.294C9.74766 105.261 7.37866 105.235 4.59586 107.726C3.68638 108.54 2.28872 108.463 1.47437 107.553C0.660273 106.643 0.737632 105.245 1.64711 104.431C5.70972 100.795 9.47432 100.836 12.7959 100.873C15.7952 100.906 18.1644 100.933 20.9472 98.4417C23.7298 95.951 23.9648 93.5936 24.2628 90.6092C24.5924 87.3038 24.9664 83.5576 29.029 79.9211C33.0913 76.2848 36.8559 76.3269 40.1772 76.3638C43.1762 76.3975 45.5447 76.4239 48.3269 73.9335C51.1097 71.4425 51.3448 69.085 51.6428 66.1007C51.9723 62.7953 52.3464 59.0491 56.409 55.4126C60.4719 51.7758 64.2362 51.8176 67.558 51.8546C70.557 51.8877 72.9263 51.9139 75.7088 49.4232C78.4919 46.932 78.727 44.5746 79.0249 41.5902C79.3548 38.2846 79.7288 34.5384 83.7917 30.9016C87.8546 27.2648 91.6192 27.3064 94.941 27.3434C97.94 27.3765 100.309 27.403 103.092 24.912C105.875 22.4206 106.111 20.0629 106.409 17.0778C106.739 13.7724 107.113 10.026 111.176 6.38894C112.086 5.57484 113.484 5.6522 114.298 6.56168C115.112 7.47143 115.035 8.86907 114.125 9.68316C111.342 12.1746 111.106 14.5323 110.808 17.5174C110.478 20.8228 110.104 24.569 106.041 28.2063Z" fill="#F8B713"/>
<path d="M125.292 38.6647C121.229 42.3013 117.465 42.2597 114.143 42.223C111.144 42.1896 108.774 42.1634 105.992 44.6543C103.209 47.1453 102.973 49.503 102.675 52.4876C102.346 55.7929 101.972 59.5391 97.9088 63.1759C93.8459 66.8127 90.0816 66.7709 86.7597 66.7339C83.7607 66.7008 81.3917 66.6743 78.6089 69.1653C75.8264 71.656 75.5913 74.0134 75.2934 76.9978C74.9638 80.3032 74.5898 84.0494 70.5269 87.6862C66.4646 91.3224 62.7005 91.2804 59.379 91.2432C56.3802 91.2098 54.0112 91.1833 51.229 93.6738C48.4464 96.1645 48.2114 98.5219 47.9134 101.506C47.5838 104.812 47.2098 108.558 43.1472 112.194C39.0843 115.831 35.3197 115.79 31.9979 115.753C28.9989 115.72 26.6296 115.693 23.8471 118.184C22.9376 118.998 21.5397 118.921 20.7256 118.011C19.9112 117.101 19.9889 115.704 20.8983 114.89C24.9609 111.253 28.7255 111.295 32.0471 111.331C35.0464 111.365 37.4157 111.391 40.1985 108.9C42.981 106.409 43.2161 104.052 43.5138 101.067C43.8436 97.7623 44.2176 94.0161 48.2802 90.3795C52.3426 86.7432 56.1069 86.7851 59.4284 86.8223C62.4272 86.8557 64.7959 86.8824 67.5781 84.3919C70.3609 81.901 70.596 79.5435 70.8937 76.5589C71.2235 73.2538 71.5976 69.5076 75.6602 65.871C79.7231 62.2343 83.4874 62.2761 86.809 62.3128C89.8082 62.3462 92.1775 62.3724 94.96 59.8817C97.7431 57.3905 97.9782 55.033 98.2759 52.0484C98.606 48.7431 98.98 44.9969 103.043 41.3601C107.106 37.7233 110.87 37.7649 114.192 37.8016C117.191 37.835 119.56 37.8614 122.343 35.3705C125.126 32.8791 125.362 30.5214 125.66 27.5362C125.99 24.2309 126.364 20.4844 130.428 16.8474C131.337 16.0333 132.735 16.1104 133.549 17.0201C134.363 17.9296 134.286 19.3275 133.376 20.1416C130.593 22.6331 130.358 24.9908 130.059 27.9759C129.729 31.2812 129.355 35.0274 125.292 38.6647Z" fill="#F8B713"/>
</svg>
