<svg width="101" height="101" viewBox="0 0 101 101" fill="none" xmlns="http://www.w3.org/2000/svg">
<path d="M8.45768 4.6C8.45768 6.73281 6.73285 8.45764 4.60004 8.45764C2.46723 8.45764 0.742467 6.73287 0.742467 4.60006C0.742467 2.46725 2.46729 0.742426 4.6001 0.742426C6.73291 0.742426 8.45768 2.46719 8.45768 4.6ZM27.6714 0.74245C25.5386 0.74245 23.8139 2.46722 23.8139 4.60003C23.8139 6.73284 25.5387 8.45763 27.6715 8.45763C29.8043 8.45763 31.5291 6.73286 31.5291 4.60005C31.5291 2.46725 29.8043 0.74245 27.6714 0.74245ZM50.7429 0.742448C48.6101 0.742448 46.8853 2.46722 46.8853 4.60002C46.8853 6.73283 48.6101 8.45763 50.7429 8.45763C52.8757 8.45763 54.6005 6.73286 54.6005 4.60005C54.6005 2.46724 52.8757 0.742448 50.7429 0.742448ZM73.8143 0.742447C71.6815 0.742447 69.9567 2.46722 69.9567 4.60002C69.9567 6.73283 71.6815 8.45763 73.8143 8.45763C75.9471 8.45763 77.6719 6.73286 77.6719 4.60005C77.6719 2.46724 75.9471 0.742447 73.8143 0.742447ZM96.8857 0.742446C94.7529 0.742446 93.0282 2.46721 93.0282 4.60002C93.0282 6.73283 94.753 8.45763 96.8858 8.45763C99.0186 8.45763 100.743 6.73286 100.743 4.60005C100.743 2.46724 99.0185 0.742446 96.8857 0.742446ZM4.60007 23.8138C2.46726 23.8138 0.742438 25.5387 0.742438 27.6715C0.742437 29.8043 2.46723 31.5291 4.60004 31.5291C6.73285 31.5291 8.45767 29.8042 8.45767 27.6714C8.45768 25.5386 6.73288 23.8138 4.60007 23.8138ZM27.6715 23.8138C25.5387 23.8138 23.8139 25.5387 23.8139 27.6715C23.8139 29.8043 25.5387 31.5291 27.6715 31.5291C29.8043 31.5291 31.5291 29.8042 31.5291 27.6714C31.5291 25.5386 29.8043 23.8138 27.6715 23.8138ZM50.7429 23.8139C48.6101 23.8139 46.8853 25.5386 46.8853 27.6715C46.8853 29.8043 48.6101 31.5291 50.7429 31.5291C52.8757 31.5291 54.6005 29.8043 54.6005 27.6715C54.6005 25.5387 52.8757 23.8139 50.7429 23.8139ZM73.8143 23.8139C71.6815 23.8139 69.9567 25.5386 69.9567 27.6715C69.9567 29.8043 71.6815 31.5291 73.8143 31.5291C75.9471 31.5291 77.6719 29.8043 77.6719 27.6715C77.6719 25.5387 75.9471 23.8139 73.8143 23.8139ZM96.8857 23.8139C94.7529 23.8139 93.0282 25.5386 93.0282 27.6715C93.0282 29.8043 94.753 31.5291 96.8858 31.5291C99.0186 31.5291 100.743 29.8043 100.743 27.6715C100.743 25.5387 99.0185 23.8139 96.8857 23.8139ZM4.60007 46.8853C2.46726 46.8853 0.742436 48.6101 0.742436 50.7429C0.742435 52.8757 2.46723 54.6005 4.60004 54.6005C6.73285 54.6005 8.45767 52.8757 8.45767 50.7429C8.45767 48.6101 6.73288 46.8853 4.60007 46.8853ZM27.6715 46.8853C25.5387 46.8853 23.8139 48.6101 23.8139 50.7429C23.8139 52.8757 25.5387 54.6005 27.6715 54.6005C29.8043 54.6005 31.5291 52.8757 31.5291 50.7429C31.5291 48.6101 29.8043 46.8853 27.6715 46.8853ZM50.7429 46.8853C48.6101 46.8853 46.8853 48.6101 46.8853 50.7429C46.8853 52.8757 48.6101 54.6005 50.7429 54.6005C52.8757 54.6005 54.6005 52.8757 54.6005 50.7429C54.6005 48.6101 52.8757 46.8853 50.7429 46.8853ZM73.8143 46.8853C71.6815 46.8853 69.9567 48.6101 69.9567 50.7429C69.9567 52.8757 71.6815 54.6005 73.8143 54.6005C75.9471 54.6005 77.6719 52.8757 77.6719 50.7429C77.6719 48.6101 75.9471 46.8853 73.8143 46.8853ZM96.8857 46.8853C94.7529 46.8853 93.0282 48.6101 93.0282 50.7429C93.0282 52.8757 94.753 54.6005 96.8858 54.6005C99.0186 54.6005 100.743 52.8757 100.743 50.7429C100.743 48.6101 99.0093 46.876 96.8857 46.8853ZM4.60007 69.9567C2.46726 69.9567 0.742436 71.6815 0.742435 73.8143C0.742435 75.9471 2.46723 77.6719 4.60004 77.6719C6.73285 77.6719 8.45767 75.9471 8.45767 73.8143C8.45767 71.6815 6.73288 69.9567 4.60007 69.9567ZM27.6715 69.9567C25.5387 69.9567 23.8139 71.6815 23.8139 73.8143C23.8139 75.9471 25.5387 77.6719 27.6715 77.6719C29.8043 77.6719 31.5291 75.9471 31.5291 73.8143C31.5291 71.6815 29.8043 69.9567 27.6715 69.9567ZM50.7429 69.9567C48.6101 69.9567 46.8853 71.6815 46.8853 73.8143C46.8853 75.9471 48.6101 77.6719 50.7429 77.6719C52.8757 77.6719 54.6005 75.9471 54.6005 73.8143C54.6005 71.6815 52.8757 69.9567 50.7429 69.9567ZM73.8144 69.9567C71.6816 69.9567 69.9567 71.6815 69.9567 73.8143C69.9567 75.9471 71.6815 77.6719 73.8143 77.6719C75.9471 77.6719 77.672 75.9471 77.672 73.8143C77.672 71.6815 75.9379 69.9474 73.8144 69.9567ZM96.8857 69.9567C94.7529 69.9567 93.0282 71.6815 93.0282 73.8143C93.0282 75.9471 94.753 77.6719 96.8858 77.6719C99.0186 77.6719 100.743 75.9472 100.743 73.8143C100.743 71.6815 99.0093 69.9475 96.8857 69.9567ZM4.60007 93.0281C2.46726 93.0281 0.742434 94.7529 0.742434 96.8857C0.742434 99.0186 2.46723 100.743 4.60004 100.743C6.73285 100.743 8.45767 99.0185 8.45767 96.8857C8.45767 94.7529 6.73288 93.0281 4.60007 93.0281ZM27.6715 93.0281C25.5387 93.0281 23.8139 94.7529 23.8139 96.8857C23.8139 99.0186 25.5387 100.743 27.6715 100.743C29.8043 100.743 31.5291 99.0185 31.5291 96.8857C31.5291 94.7529 29.8043 93.0281 27.6715 93.0281ZM50.7429 93.0281C48.6101 93.0281 46.8853 94.7529 46.8853 96.8857C46.8853 99.0186 48.6101 100.743 50.7429 100.743C52.8757 100.743 54.6005 99.0185 54.6005 96.8857C54.6005 94.7529 52.8665 93.0188 50.7429 93.0281ZM73.8144 93.0281C71.6816 93.0281 69.9567 94.7529 69.9567 96.8857C69.9567 99.0186 71.6815 100.743 73.8143 100.743C75.9471 100.743 77.672 99.0185 77.672 96.8857C77.672 94.7529 75.9379 93.0188 73.8144 93.0281ZM96.8765 93.0188C94.7437 93.0188 93.0189 94.7437 93.0189 96.8765C93.0189 99.0093 94.7437 100.734 96.8765 100.734C99.0093 100.734 100.734 99.0092 100.734 96.8764C100.743 94.7529 99.0093 93.0188 96.8765 93.0188Z" fill="#244579"/>
</svg>
