<svg width="175" height="23" viewBox="0 0 175 23" fill="none" xmlns="http://www.w3.org/2000/svg">
<path d="M11.69 22.36C10.03 22.36 8.49 22.09 7.07 21.55C5.67 21.01 4.45 20.25 3.41 19.27C2.39 18.29 1.59 17.14 1.01 15.82C0.45 14.5 0.17 13.06 0.17 11.5C0.17 9.94 0.45 8.5 1.01 7.18C1.59 5.86 2.4 4.71 3.44 3.73C4.48 2.75 5.7 1.99 7.1 1.45C8.5 0.909999 10.02 0.64 11.66 0.64C13.32 0.64 14.84 0.909999 16.22 1.45C17.62 1.99 18.83 2.75 19.85 3.73C20.89 4.71 21.7 5.86 22.28 7.18C22.86 8.48 23.15 9.92 23.15 11.5C23.15 13.06 22.86 14.51 22.28 15.85C21.7 17.17 20.89 18.32 19.85 19.3C18.83 20.26 17.62 21.01 16.22 21.55C14.84 22.09 13.33 22.36 11.69 22.36ZM11.66 18.22C12.6 18.22 13.46 18.06 14.24 17.74C15.04 17.42 15.74 16.96 16.34 16.36C16.94 15.76 17.4 15.05 17.72 14.23C18.06 13.41 18.23 12.5 18.23 11.5C18.23 10.5 18.06 9.59 17.72 8.77C17.4 7.95 16.94 7.24 16.34 6.64C15.76 6.04 15.07 5.58 14.27 5.26C13.47 4.94 12.6 4.78 11.66 4.78C10.72 4.78 9.85 4.94 9.05 5.26C8.27 5.58 7.58 6.04 6.98 6.64C6.38 7.24 5.91 7.95 5.57 8.77C5.25 9.59 5.09 10.5 5.09 11.5C5.09 12.48 5.25 13.39 5.57 14.23C5.91 15.05 6.37 15.76 6.95 16.36C7.55 16.96 8.25 17.42 9.05 17.74C9.85 18.06 10.72 18.22 11.66 18.22ZM31.3025 10.45H41.3825V14.35H31.3025V10.45ZM31.6625 22H26.8025V0.999999H42.6725V4.9H31.6625V22ZM50.4627 10.45H60.5427V14.35H50.4627V10.45ZM50.8227 22H45.9627V0.999999H61.8327V4.9H50.8227V22ZM72.0228 22.36C70.3428 22.36 68.7328 22.14 67.1928 21.7C65.6528 21.24 64.4128 20.65 63.4728 19.93L65.1228 16.27C66.0228 16.91 67.0828 17.44 68.3028 17.86C69.5428 18.26 70.7928 18.46 72.0528 18.46C73.0128 18.46 73.7828 18.37 74.3628 18.19C74.9628 17.99 75.4028 17.72 75.6828 17.38C75.9628 17.04 76.1028 16.65 76.1028 16.21C76.1028 15.65 75.8828 15.21 75.4428 14.89C75.0028 14.55 74.4228 14.28 73.7028 14.08C72.9828 13.86 72.1828 13.66 71.3028 13.48C70.4428 13.28 69.5728 13.04 68.6928 12.76C67.8328 12.48 67.0428 12.12 66.3228 11.68C65.6028 11.24 65.0128 10.66 64.5528 9.94C64.1128 9.22 63.8928 8.3 63.8928 7.18C63.8928 5.98 64.2128 4.89 64.8528 3.91C65.5128 2.91 66.4928 2.12 67.7928 1.54C69.1128 0.939999 70.7628 0.64 72.7428 0.64C74.0628 0.64 75.3628 0.799999 76.6428 1.12C77.9228 1.42 79.0528 1.88 80.0328 2.5L78.5328 6.19C77.5528 5.63 76.5728 5.22 75.5928 4.96C74.6128 4.68 73.6528 4.54 72.7128 4.54C71.7728 4.54 71.0028 4.65 70.4028 4.87C69.8028 5.09 69.3728 5.38 69.1128 5.74C68.8528 6.08 68.7228 6.48 68.7228 6.94C68.7228 7.48 68.9428 7.92 69.3828 8.26C69.8228 8.58 70.4028 8.84 71.1228 9.04C71.8428 9.24 72.6328 9.44 73.4928 9.64C74.3728 9.84 75.2428 10.07 76.1028 10.33C76.9828 10.59 77.7828 10.94 78.5028 11.38C79.2228 11.82 79.8028 12.4 80.2428 13.12C80.7028 13.84 80.9328 14.75 80.9328 15.85C80.9328 17.03 80.6028 18.11 79.9428 19.09C79.2828 20.07 78.2928 20.86 76.9728 21.46C75.6728 22.06 74.0228 22.36 72.0228 22.36ZM98.6537 0.999999H103.514V22H98.6537V0.999999ZM89.1137 22H84.2537V0.999999H89.1137V22ZM99.0137 13.39H88.7537V9.28H99.0137V13.39ZM118.682 22.36C117.022 22.36 115.482 22.09 114.062 21.55C112.662 21.01 111.442 20.25 110.402 19.27C109.382 18.29 108.582 17.14 108.002 15.82C107.442 14.5 107.162 13.06 107.162 11.5C107.162 9.94 107.442 8.5 108.002 7.18C108.582 5.86 109.392 4.71 110.432 3.73C111.472 2.75 112.692 1.99 114.092 1.45C115.492 0.909999 117.012 0.64 118.652 0.64C120.312 0.64 121.832 0.909999 123.212 1.45C124.612 1.99 125.822 2.75 126.842 3.73C127.882 4.71 128.692 5.86 129.272 7.18C129.852 8.48 130.142 9.92 130.142 11.5C130.142 13.06 129.852 14.51 129.272 15.85C128.692 17.17 127.882 18.32 126.842 19.3C125.822 20.26 124.612 21.01 123.212 21.55C121.832 22.09 120.322 22.36 118.682 22.36ZM118.652 18.22C119.592 18.22 120.452 18.06 121.232 17.74C122.032 17.42 122.732 16.96 123.332 16.36C123.932 15.76 124.392 15.05 124.712 14.23C125.052 13.41 125.222 12.5 125.222 11.5C125.222 10.5 125.052 9.59 124.712 8.77C124.392 7.95 123.932 7.24 123.332 6.64C122.752 6.04 122.062 5.58 121.262 5.26C120.462 4.94 119.592 4.78 118.652 4.78C117.712 4.78 116.842 4.94 116.042 5.26C115.262 5.58 114.572 6.04 113.972 6.64C113.372 7.24 112.902 7.95 112.562 8.77C112.242 9.59 112.082 10.5 112.082 11.5C112.082 12.48 112.242 13.39 112.562 14.23C112.902 15.05 113.362 15.76 113.942 16.36C114.542 16.96 115.242 17.42 116.042 17.74C116.842 18.06 117.712 18.22 118.652 18.22ZM143.995 22.36C142.335 22.36 140.795 22.09 139.375 21.55C137.975 21.01 136.755 20.25 135.715 19.27C134.695 18.29 133.895 17.14 133.315 15.82C132.755 14.5 132.475 13.06 132.475 11.5C132.475 9.94 132.755 8.5 133.315 7.18C133.895 5.86 134.705 4.71 135.745 3.73C136.785 2.75 138.005 1.99 139.405 1.45C140.805 0.909999 142.325 0.64 143.965 0.64C145.625 0.64 147.145 0.909999 148.525 1.45C149.925 1.99 151.135 2.75 152.155 3.73C153.195 4.71 154.005 5.86 154.585 7.18C155.165 8.48 155.455 9.92 155.455 11.5C155.455 13.06 155.165 14.51 154.585 15.85C154.005 17.17 153.195 18.32 152.155 19.3C151.135 20.26 149.925 21.01 148.525 21.55C147.145 22.09 145.635 22.36 143.995 22.36ZM143.965 18.22C144.905 18.22 145.765 18.06 146.545 17.74C147.345 17.42 148.045 16.96 148.645 16.36C149.245 15.76 149.705 15.05 150.025 14.23C150.365 13.41 150.535 12.5 150.535 11.5C150.535 10.5 150.365 9.59 150.025 8.77C149.705 7.95 149.245 7.24 148.645 6.64C148.065 6.04 147.375 5.58 146.575 5.26C145.775 4.94 144.905 4.78 143.965 4.78C143.025 4.78 142.155 4.94 141.355 5.26C140.575 5.58 139.885 6.04 139.285 6.64C138.685 7.24 138.215 7.95 137.875 8.77C137.555 9.59 137.395 10.5 137.395 11.5C137.395 12.48 137.555 13.39 137.875 14.23C138.215 15.05 138.675 15.76 139.255 16.36C139.855 16.96 140.555 17.42 141.355 17.74C142.155 18.06 143.025 18.22 143.965 18.22ZM163.164 22V4.96H156.444V0.999999H174.744V4.96H168.024V22H163.164Z" fill="black"/>
</svg>
