<svg width="195" height="70" viewBox="0 0 195 70" fill="none" xmlns="http://www.w3.org/2000/svg">
<path d="M168.224 16.3725C161.266 16.3725 157.723 13.129 154.596 10.2673C151.772 7.68297 149.542 5.64164 144.776 5.64164C140.011 5.64164 137.78 7.68297 134.957 10.2673C131.83 13.129 128.286 16.3725 121.328 16.3725C114.37 16.3725 110.827 13.129 107.7 10.2673C104.877 7.68297 102.647 5.64164 97.8812 5.64164C93.1159 5.64164 90.886 7.68297 88.0629 10.2673C84.9364 13.129 81.3926 16.3725 74.4345 16.3725C67.4775 16.3725 63.9345 13.129 60.8081 10.2673C57.9854 7.68297 55.7555 5.64164 50.9907 5.64164C46.2254 5.64164 43.9955 7.68297 41.1724 10.2673C38.046 13.129 34.5021 16.3725 27.5445 16.3725C20.5865 16.3725 17.0426 13.129 13.9157 10.2673C11.0926 7.68297 8.86272 5.64164 4.09694 5.64164C2.53938 5.64164 1.27612 4.37885 1.27612 2.82082C1.27612 1.26326 2.53938 0 4.09694 0C11.0545 0 14.5984 3.24347 17.7253 6.10519C20.5484 8.68953 22.7788 10.7309 27.5445 10.7309C32.3098 10.7309 34.5397 8.68953 37.3629 6.10566C40.4893 3.24347 44.0332 0 50.9907 0C57.9478 0 61.4912 3.24394 64.6176 6.10566C67.4403 8.69 69.6697 10.7309 74.4345 10.7309C79.2003 10.7309 81.4302 8.68953 84.2533 6.10566C87.3797 3.24347 90.9236 0 97.8812 0C104.839 0 108.383 3.24347 111.51 6.10566C114.333 8.68953 116.563 10.7309 121.328 10.7309C126.095 10.7309 128.324 8.68953 131.148 6.10566C134.274 3.24347 137.818 0 144.776 0C151.734 0 155.278 3.24347 158.405 6.10566C161.228 8.68953 163.458 10.7309 168.224 10.7309C172.991 10.7309 175.221 8.68953 178.045 6.10519C181.172 3.24347 184.716 0 191.675 0C193.232 0 194.496 1.26326 194.496 2.82082C194.496 4.37885 193.232 5.64164 191.675 5.64164C186.908 5.64164 184.678 7.68297 181.854 10.2673C178.727 13.129 175.183 16.3725 168.224 16.3725Z" fill="#F8B713"/>
<path d="M167.318 43.5781C160.36 43.5781 156.816 40.3346 153.689 37.4729C150.866 34.8885 148.636 32.8472 143.87 32.8472C139.104 32.8472 136.874 34.8885 134.05 37.4724C130.924 40.3346 127.38 43.5781 120.422 43.5781C113.464 43.5781 109.921 40.3346 106.794 37.4724C103.971 34.8885 101.741 32.8472 96.9749 32.8472C92.2096 32.8472 89.9798 34.8885 87.1566 37.4724C84.0302 40.3346 80.4863 43.5781 73.5283 43.5781C66.5712 43.5781 63.0283 40.3346 59.9019 37.4724C57.0792 34.8885 54.8493 32.8472 50.0845 32.8472C45.3192 32.8472 43.0893 34.8885 40.2661 37.4724C37.1397 40.3346 33.5958 43.5781 26.6383 43.5781C19.6803 43.5781 16.1364 40.3346 13.0095 37.4724C10.1863 34.8885 7.956 32.8472 3.19069 32.8472C1.63313 32.8472 0.369873 31.5839 0.369873 30.0264C0.369873 28.4684 1.63313 27.2056 3.19069 27.2056C10.1482 27.2056 13.6921 30.449 16.819 33.3108C19.6422 35.8951 21.8725 37.9364 26.6383 37.9364C31.4036 37.9364 33.6334 35.8951 36.4566 33.3108C39.583 30.449 43.1269 27.2056 50.0845 27.2056C57.0415 27.2056 60.585 30.449 63.7114 33.3112C66.5341 35.8951 68.7635 37.9364 73.5283 37.9364C78.2941 37.9364 80.5239 35.8951 83.3471 33.3108C86.4735 30.449 90.0174 27.2056 96.9749 27.2056C103.933 27.2056 107.476 30.449 110.603 33.3108C113.426 35.8951 115.657 37.9364 120.422 37.9364C125.188 37.9364 127.418 35.8951 130.241 33.3108C133.368 30.449 136.912 27.2056 143.87 27.2056C150.828 27.2056 154.372 30.449 157.499 33.3108C160.322 35.8951 162.552 37.9364 167.318 37.9364C172.084 37.9364 174.315 35.8951 177.139 33.3108C180.266 30.449 183.81 27.2056 190.769 27.2056C192.326 27.2056 193.589 28.4684 193.589 30.0264C193.589 31.5839 192.326 32.8472 190.769 32.8472C186.002 32.8472 183.772 34.8885 180.947 37.4729C177.821 40.3346 174.277 43.5781 167.318 43.5781Z" fill="#F8B713"/>
<path d="M166.948 69.9663C159.99 69.9663 156.446 66.7228 153.32 63.8611C150.496 61.2767 148.266 59.2354 143.5 59.2354C138.734 59.2354 136.504 61.2767 133.68 63.8606C130.554 66.7228 127.01 69.9663 120.052 69.9663C113.094 69.9663 109.551 66.7228 106.424 63.8606C103.601 61.2767 101.371 59.2354 96.6051 59.2354C91.8398 59.2354 89.6099 61.2767 86.7867 63.8606C83.6603 66.7228 80.1164 69.9663 73.1584 69.9663C66.2013 69.9663 62.6584 66.7228 59.532 63.8606C56.7093 61.2767 54.4794 59.2354 49.7146 59.2354C44.9493 59.2354 42.7194 61.2767 39.8963 63.8606C36.7698 66.7228 33.226 69.9663 26.2684 69.9663C19.3104 69.9663 15.7665 66.7228 12.6396 63.8606C9.81645 61.2767 7.58612 59.2354 2.82082 59.2354C1.26326 59.2354 0 57.9721 0 56.4146C0 54.8565 1.26326 53.5938 2.82082 53.5938C9.77837 53.5938 13.3223 56.8372 16.4491 59.6989C19.2723 62.2833 21.5026 64.3246 26.2684 64.3246C31.0337 64.3246 33.2636 62.2833 36.0867 59.6989C39.2131 56.8372 42.757 53.5937 49.7146 53.5937C56.6717 53.5937 60.2151 56.8372 63.3415 59.6994C66.1642 62.2833 68.3936 64.3246 73.1584 64.3246C77.9242 64.3246 80.154 62.2833 82.9772 59.6989C86.1036 56.8372 89.6475 53.5937 96.6051 53.5937C103.563 53.5937 107.106 56.8372 110.233 59.6989C113.057 62.2833 115.287 64.3246 120.052 64.3246C124.818 64.3246 127.048 62.2833 129.871 59.6989C132.998 56.8372 136.542 53.5937 143.5 53.5937C150.458 53.5937 154.002 56.8372 157.129 59.6989C159.952 62.2833 162.182 64.3246 166.948 64.3246C171.715 64.3246 173.945 62.2833 176.769 59.6989C179.896 56.8372 183.44 53.5937 190.399 53.5937C191.956 53.5937 193.22 54.8565 193.22 56.4146C193.22 57.9721 191.956 59.2354 190.399 59.2354C185.632 59.2354 183.402 61.2767 180.578 63.8611C177.451 66.7228 173.907 69.9663 166.948 69.9663Z" fill="#F8B713"/>
</svg>
