<?xml version="1.0" encoding="iso-8859-1"?>
<!-- Uploaded to: SVGRepo, www.svgrepo.com, Transformed by: SVGRepo Tools -->
<svg height="800px" width="800px" version="1.1" id="Layer_1" xmlns="http://www.w3.org/2000/svg" xmlns:xlink="http://www.w3.org/1999/xlink" 
	 viewBox="0 0 512 512" xml:space="preserve">
<path style="fill:#F24141;" d="M411.824,246.668c-0.901,22.282-2.623,44.428-5.168,65.573
	c-8.422,69.897-24.14,114.629-43.629,140.266c-36.052-16.697-75.211-24.5-114.167-23.408c0.799-3.13,1.531-6.271,2.229-9.435
	c5.427-24.826,7.769-50.677,6.654-77.091c-0.281-6.598-0.777-13.229-1.497-19.895c-0.45-4.177-0.991-8.32-1.61-12.441
	c-1.272-8.523-2.894-16.911-4.841-25.153c4.571-34.734,11.833-71.248,20.829-105.948c24.308-93.788,61.34-174.313,92.505-170.564
	c26.819,3.231,43.044,68.095,47.907,147.843C412.803,185.283,413.085,216.099,411.824,246.668z"/>
<path style="fill:#79C4F7;" d="M251.089,419.664c-0.698,3.164-1.43,6.305-2.229,9.435c-30.884,0.856-61.644,7.307-90.636,19.343
	c-0.585-1.07-1.16-2.15-1.723-3.231c-8.219-15.616-15.11-32.077-20.548-49.259c-5.922-18.69-10.088-38.247-12.306-58.48L123.602,337
	c-1.126-10.448-1.7-20.818-1.756-31.098c-0.349-59.898,17.08-116.554,47.739-164.36c18.848,18.848,35.275,40.229,48.684,63.67
	c2.477,4.312,4.841,8.703,7.093,13.162c10.595,20.863,18.87,43.201,24.432,66.71c2.894,12.227,5.067,24.77,6.451,37.594
	c0.721,6.665,1.216,13.297,1.497,19.895C258.857,368.987,256.515,394.838,251.089,419.664z"/>
<path style="fill:#F97D7D;" d="M411.824,246.668c-40.6,6.744-100.431,23.239-157.188,63.569c-1.272-8.523-2.894-16.911-4.841-25.153
	c4.571-34.734,11.833-71.248,20.829-105.948c26.662,1.407,84.151,0.901,140.412-22.721
	C412.803,185.283,413.085,216.099,411.824,246.668z"/>
<path style="fill:#B8E6FF;" d="M257.743,342.573c0,0-63.119-19.85-121.79,53.379c-5.922-18.69-10.088-38.247-12.306-58.48
	L123.602,337c-1.126-10.448-1.7-20.818-1.756-31.098c0.968-0.068,60.54-4.605,103.516-87.528
	c10.595,20.863,18.87,43.201,24.432,66.71c2.894,12.227,5.067,24.77,6.451,37.594C256.966,329.343,257.461,335.975,257.743,342.573z
	"/>
<path style="fill:#F2D546;" d="M436.005,503.554c-99.413-99.413-260.594-99.413-360.009,0"/>
<path style="fill:#D6BA30;" d="M75.996,503.554h65.303c41.384-41.384,93.473-65.523,147.352-72.453
	C213.1,421.384,134.027,445.525,75.996,503.554z"/>
<path d="M258.285,233.228c0.573,0.117,1.144,0.175,1.708,0.175c3.925,0,7.442-2.752,8.263-6.748
	c11.506-56.023,28.284-110.662,46.033-149.906c20.729-45.834,38.308-60.948,47.829-59.793c10.223,1.232,20.866,20.546,28.472,51.661
	c1.107,4.531,5.675,7.303,10.208,6.198c4.531-1.108,7.305-5.678,6.198-10.208c-9.902-40.51-24.322-62.184-42.859-64.419
	c-21.23-2.558-43.192,20.861-65.235,69.602c-18.242,40.335-35.441,96.272-47.188,153.468
	C250.774,227.826,253.718,232.289,258.285,233.228z"/>
<path d="M400.723,463.887c-8.12-5.362-16.524-10.238-25.155-14.635c18.883-29.539,32.147-75.209,39.472-136.002
	c9.012-74.815,7.912-160.421-2.871-223.414c-0.787-4.597-5.147-7.683-9.748-6.898c-4.597,0.787-7.685,5.151-6.898,9.748
	c10.367,60.564,11.447,146.348,2.749,218.545c-7.196,59.718-20.016,103.658-38.14,130.786
	c-31.68-13.616-65.941-20.941-100.609-21.426c5.526-25.641,7.77-52.004,6.656-78.378c-0.29-6.807-0.808-13.685-1.539-20.441
	c-1.4-12.961-3.63-25.96-6.629-38.633c-6.825-28.822-17.73-56.451-32.413-82.119c-13.663-23.884-30.5-45.904-50.043-65.448
	c-1.807-1.807-4.337-2.701-6.878-2.424c-2.541,0.275-4.821,1.685-6.202,3.837c-18.724,29.203-32.333,61.022-40.447,94.577
	c-8.395,34.712-10.692,70.472-6.829,106.288l0.039,0.415c0.003,0.043,0.008,0.086,0.012,0.128
	c3.3,30.101,10.894,59.395,22.576,87.07c1.814,4.296,6.767,6.31,11.063,4.496c4.296-1.814,6.31-6.767,4.496-11.063
	c-11.035-26.146-18.215-53.828-21.339-82.278l-0.038-0.408c-0.003-0.038-0.007-0.077-0.011-0.116
	c-3.661-33.894-1.493-67.729,6.447-100.562c6.833-28.259,17.791-55.22,32.619-80.292c15.339,16.497,28.727,34.676,39.875,54.168
	c13.879,24.262,24.187,50.379,30.638,77.624c2.838,11.991,4.949,24.29,6.274,36.557c0.691,6.394,1.181,12.903,1.456,19.343
	c1.064,25.22-1.111,50.432-6.463,74.915c-0.235,1.066-0.465,2.08-0.694,3.071c-3.785,0.197-7.571,0.475-11.355,0.838
	c-60.573,5.798-117.669,32.729-160.77,75.83c-3.298,3.298-3.298,8.645,0,11.941c1.648,1.648,3.81,2.474,5.971,2.474
	s4.322-0.824,5.971-2.474c40.335-40.333,93.76-65.535,150.437-70.961c55.941-5.354,112.408,8.645,159.013,39.416
	c3.891,2.569,9.13,1.499,11.699-2.394C405.687,471.696,404.615,466.457,400.723,463.887z"/>
<path d="M441.977,497.584c-6.06-6.06-12.471-11.881-19.056-17.301c-3.602-2.965-8.923-2.447-11.886,1.153
	c-2.963,3.601-2.448,8.923,1.153,11.886c6.167,5.076,12.171,10.527,17.847,16.204c1.649,1.648,3.81,2.474,5.972,2.474
	c2.161,0,4.322-0.824,5.971-2.473C445.273,506.228,445.273,500.881,441.977,497.584z"/>
<path d="M181.453,251.438c-4.636,0.5-7.989,4.666-7.488,9.302l16.137,149.462c0.467,4.329,4.129,7.538,8.385,7.538
	c0.303,0,0.609-0.016,0.916-0.05c4.636-0.5,7.989-4.666,7.488-9.302l-16.137-149.462C190.254,254.29,186.086,250.93,181.453,251.438
	z"/>
<path d="M183.428,191.069c-0.501-4.638-4.671-7.993-9.302-7.488c-4.636,0.5-7.989,4.666-7.488,9.302l4.443,41.148
	c0.467,4.329,4.129,7.538,8.385,7.538c0.303,0,0.609-0.016,0.916-0.05c4.636-0.5,7.989-4.666,7.488-9.302L183.428,191.069z"/>
<path d="M171.622,488.16c-3.024-1.762-6.912-1.464-9.623,0.754c-2.844,2.326-3.84,6.361-2.441,9.752
	c1.286,3.114,4.414,5.224,7.791,5.224c3.915,0,7.372-2.796,8.241-6.599C176.397,493.756,174.752,489.984,171.622,488.16z"/>
<path d="M115.333,489.77c-5.843,4.974-2.181,14.863,5.483,14.863c4.07,0,7.613-2.994,8.313-6.996
	C130.461,490.009,121.223,484.757,115.333,489.77z"/>
<path d="M137.169,472.299c-2.826,2.219-3.908,6.096-2.718,9.471c1.172,3.323,4.426,5.604,7.948,5.604
	c3.927,0,7.356-2.796,8.229-6.599C152.374,473.177,143.265,467.511,137.169,472.299z"/>
<path d="M335.389,475.403c-2.783,2.277-3.813,6.209-2.515,9.56c1.246,3.218,4.417,5.417,7.878,5.417
	c3.965,0,7.505-2.914,8.275-6.801C350.534,475.968,341.391,470.494,335.389,475.403z"/>
<path d="M378.334,490.288c-2.901,2.259-3.999,6.267-2.676,9.692c1.245,3.222,4.421,5.408,7.878,5.408
	c4.141,0,7.719-3.13,8.349-7.208C393.03,490.763,384.179,485.738,378.334,490.288z"/>
<path d="M180.407,460.089c-2.969,2.139-4.214,6.12-3.025,9.573c1.163,3.375,4.423,5.699,7.994,5.699
	c3.824,0,7.229-2.668,8.171-6.366C195.464,461.467,186.652,455.591,180.407,460.089z"/>
<g>
</g>
<g>
</g>
<g>
</g>
<g>
</g>
<g>
</g>
<g>
</g>
<g>
</g>
<g>
</g>
<g>
</g>
<g>
</g>
<g>
</g>
<g>
</g>
<g>
</g>
<g>
</g>
<g>
</g>
</svg>
