<svg width="154" height="154" viewBox="0 0 154 154" fill="none" xmlns="http://www.w3.org/2000/svg">
<path d="M10.1854 27.9174C10.734 30.6861 8.9386 33.3689 6.1699 33.9175C3.40121 34.4661 0.71856 32.6707 0.169956 29.902C-0.378648 27.1333 1.41676 24.4506 4.18546 23.902C6.95415 23.3534 9.6368 25.1487 10.1854 27.9174ZM34.1354 17.9676C31.3667 18.5162 29.5714 21.1988 30.12 23.9675C30.6686 26.7362 33.3513 28.5316 36.12 27.983C38.8887 27.4344 40.684 24.7517 40.1354 21.983C39.5868 19.2143 36.9041 17.419 34.1354 17.9676ZM64.0855 12.0331C61.3168 12.5817 59.5214 15.2644 60.07 18.033C60.6186 20.8017 63.3013 22.5971 66.07 22.0485C68.8387 21.4999 70.6341 18.8173 70.0855 16.0486C69.5369 13.2799 66.8542 11.4845 64.0855 12.0331ZM94.0355 6.09864C91.2668 6.64724 89.4715 9.32989 90.0201 12.0986C90.5687 14.8673 93.2514 16.6627 96.0201 16.1141C98.7888 15.5654 100.584 12.8828 100.036 10.1141C99.4869 7.34541 96.8042 5.55003 94.0355 6.09864ZM123.986 0.164168C121.217 0.712772 119.422 3.39542 119.97 6.16411C120.519 8.93281 123.201 10.7282 125.97 10.1796C128.739 9.63098 130.534 6.94833 129.986 4.17964C129.437 1.41095 126.754 -0.384436 123.986 0.164168ZM10.1199 53.852C7.35119 54.4006 5.55578 57.0834 6.10438 59.852C6.65298 62.6207 9.33567 64.4161 12.1044 63.8675C14.8731 63.3189 16.6685 60.6362 16.1199 57.8675C15.5713 55.0988 12.8886 53.3034 10.1199 53.852ZM40.0699 47.9175C37.3012 48.4661 35.5058 51.1489 36.0544 53.9176C36.603 56.6863 39.2857 58.4817 42.0544 57.933C44.8231 57.3844 46.6185 54.7017 46.0699 51.933C45.5213 49.1643 42.8386 47.3689 40.0699 47.9175ZM70.0199 41.9832C67.2512 42.5318 65.4559 45.2144 66.0045 47.9831C66.5531 50.7518 69.2358 52.5472 72.0045 51.9986C74.7732 51.45 76.5685 48.7673 76.0199 45.9986C75.4713 43.2299 72.7886 41.4346 70.0199 41.9832ZM99.97 36.0487C97.2013 36.5973 95.406 39.2799 95.9546 42.0486C96.5032 44.8173 99.1858 46.6127 101.955 46.0641C104.723 45.5155 106.519 42.8329 105.97 40.0642C105.421 37.2955 102.739 35.5001 99.97 36.0487ZM129.92 30.1142C127.151 30.6628 125.356 33.3455 125.905 36.1142C126.453 38.8829 129.136 40.6782 131.905 40.1296C134.673 39.581 136.469 36.8984 135.92 34.1297C135.371 31.361 132.689 29.5656 129.92 30.1142ZM16.0543 83.8021C13.2857 84.3507 11.4902 87.0334 12.0388 89.8021C12.5874 92.5708 15.2701 94.3662 18.0388 93.8176C20.8075 93.269 22.6029 90.5862 22.0543 87.8175C21.5057 85.0488 18.823 83.2535 16.0543 83.8021ZM46.0044 77.8676C43.2357 78.4162 41.4403 81.0989 41.9889 83.8676C42.5375 86.6363 45.2202 88.4317 47.9889 87.8831C50.7576 87.3345 52.553 84.6518 52.0044 81.8831C51.4558 79.1144 48.7731 77.319 46.0044 77.8676ZM75.9545 71.9331C73.1858 72.4817 71.3904 75.1645 71.939 77.9332C72.4876 80.7019 75.1703 82.4972 77.9389 81.9486C80.7076 81.4 82.5031 78.7173 81.9545 75.9486C81.4058 73.1799 78.7232 71.3845 75.9545 71.9331ZM105.904 65.9988C103.136 66.5474 101.34 69.23 101.889 71.9987C102.438 74.7674 105.12 76.5628 107.889 76.0142C110.658 75.4656 112.453 72.7829 111.904 70.0142C111.356 67.2455 108.673 65.4501 105.904 65.9988ZM135.855 60.0643C133.086 60.6129 131.29 63.2955 131.839 66.0642C132.388 68.8329 135.07 70.6283 137.839 70.0797C140.608 69.5311 142.403 66.8485 141.855 64.0798C141.306 61.3111 138.609 59.506 135.855 60.0643ZM21.9888 113.752C19.2201 114.301 17.4247 116.983 17.9733 119.752C18.5219 122.521 21.2046 124.316 23.9733 123.768C26.742 123.219 28.5374 120.536 27.9888 117.768C27.4402 114.999 24.7575 113.204 21.9888 113.752ZM51.9389 107.818C49.1702 108.366 47.3748 111.049 47.9234 113.818C48.472 116.586 51.1547 118.382 53.9234 117.833C56.6921 117.285 58.4875 114.602 57.9389 111.833C57.3903 109.064 54.7076 107.269 51.9389 107.818ZM81.8889 101.883C79.1202 102.432 77.3248 105.115 77.8734 107.883C78.422 110.652 81.1047 112.447 83.8734 111.899C86.6421 111.35 88.4375 108.667 87.8889 105.899C87.3403 103.13 84.6576 101.335 81.8889 101.883ZM111.839 95.9487C109.07 96.4973 107.275 99.1801 107.823 101.949C108.372 104.717 111.055 106.513 113.823 105.964C116.592 105.416 118.388 102.733 117.839 99.9642C117.29 97.1955 114.593 95.3905 111.839 95.9487ZM141.789 90.0143C139.02 90.5629 137.225 93.2456 137.774 96.0143C138.322 98.783 141.005 100.578 143.774 100.03C146.542 99.4812 148.338 96.7985 147.789 94.0298C147.24 91.2611 144.543 89.4561 141.789 90.0143ZM27.9233 143.702C25.1546 144.251 23.3592 146.934 23.9078 149.702C24.4564 152.471 27.1391 154.266 29.9078 153.718C32.6765 153.169 34.4719 150.486 33.9233 147.718C33.3747 144.949 30.692 143.154 27.9233 143.702ZM57.8733 137.768C55.1046 138.316 53.3092 140.999 53.8578 143.768C54.4064 146.536 57.0891 148.332 59.8578 147.783C62.6265 147.235 64.4219 144.552 63.8733 141.783C63.3247 139.014 60.642 137.219 57.8733 137.768ZM87.8234 131.833C85.0547 132.382 83.2593 135.065 83.8079 137.833C84.3565 140.602 87.0392 142.397 89.8079 141.849C92.5766 141.3 94.372 138.617 93.8234 135.849C93.2748 133.08 90.5777 131.275 87.8234 131.833ZM117.773 125.899C115.005 126.447 113.209 129.13 113.758 131.899C114.307 134.668 116.989 136.463 119.758 135.914C122.527 135.366 124.322 132.683 123.773 129.914C123.225 127.146 120.528 125.341 117.773 125.899ZM147.709 119.955C144.94 120.503 143.145 123.186 143.694 125.955C144.242 128.723 146.925 130.519 149.694 129.97C152.462 129.422 154.258 126.739 153.709 123.97C153.175 121.211 150.478 119.406 147.709 119.955Z" fill="#244579"/>
</svg>
