<svg width="1728" height="320" viewBox="0 0 1728 320" fill="none" xmlns="http://www.w3.org/2000/svg">
<path d="M-10 128L47.9333 149.3C105.867 171 221.733 213 337.6 234.7C453.467 256 569.333 256 685.2 256C801.067 256 916.933 256 1032.8 229.3C1148.67 203 1264.53 149 1380.4 133.3C1496.27 117 1612.13 139 1670.07 149.3L1728 160V320H1670.07C1612.13 320 1496.27 320 1380.4 320C1264.53 320 1148.67 320 1032.8 320C916.933 320 801.067 320 685.2 320C569.333 320 453.467 320 337.6 320C221.733 320 105.867 320 47.9333 320H-10V128Z" fill="#F8B713"/>
</svg>
